<svg xmlns="http://www.w3.org/2000/svg" viewBox="0 0 720 520" fill="none">
  <defs>
    <linearGradient id="bg" x1="70" y1="22" x2="654" y2="496" gradientUnits="userSpaceOnUse">
      <stop stop-color="#F8FAFF"/>
      <stop offset="1" stop-color="#EAF0FF"/>
    </linearGradient>
    <linearGradient id="brand" x1="104" y1="104" x2="614" y2="412" gradientUnits="userSpaceOnUse">
      <stop stop-color="#1E3A8A"/>
      <stop offset=".58" stop-color="#2563EB"/>
      <stop offset="1" stop-color="#60A5FA"/>
    </linearGradient>
    <filter id="shadow" x="34" y="40" width="652" height="456" filterUnits="userSpaceOnUse" color-interpolation-filters="sRGB">
      <feDropShadow dx="0" dy="26" stdDeviation="26" flood-color="#0F172A" flood-opacity=".18"/>
    </filter>
  </defs>

  <rect width="720" height="520" rx="38" fill="url(#bg)"/>
  <circle cx="574" cy="130" r="76" fill="#DBEAFE" opacity=".72"/>
  <circle cx="140" cy="412" r="88" fill="#EEF2FF" opacity=".9"/>

  <g filter="url(#shadow)">
    <rect x="82" y="66" width="556" height="388" rx="22" fill="white"/>
    <rect x="82" y="66" width="556" height="58" rx="22" fill="#101B3A"/>
    <path d="M82 104H638V124H82V104Z" fill="#101B3A"/>
    <circle cx="114" cy="96" r="8" fill="#FBBF24"/>
    <circle cx="140" cy="96" r="8" fill="#FB923C"/>
    <circle cx="166" cy="96" r="8" fill="#60A5FA"/>
    <text x="196" y="102" fill="#F8FAFC" font-family="Inter, Arial, sans-serif" font-size="18" font-weight="800">Offer room</text>

    <text x="120" y="166" fill="#64748B" font-family="Inter, Arial, sans-serif" font-size="14" font-weight="800" letter-spacing="2">THE RESULT</text>
    <text x="120" y="202" fill="#0F172A" font-family="Inter, Arial, sans-serif" font-size="31" font-weight="850">Decision ready</text>

    <rect x="120" y="236" width="232" height="92" rx="18" fill="#EEF3FF" stroke="#D9E2F7"/>
    <rect x="144" y="260" width="44" height="44" rx="13" fill="#FEF3C7"/>
    <text x="155" y="288" fill="#0F3D35" font-family="Inter, Arial, sans-serif" font-size="15" font-weight="850">AL</text>
    <text x="206" y="276" fill="#64748B" font-family="Inter, Arial, sans-serif" font-size="12" font-weight="800" letter-spacing="1.2">OFFER ROOM</text>
    <text x="206" y="301" fill="#0F172A" font-family="Inter, Arial, sans-serif" font-size="20" font-weight="850">Ready to send</text>

    <rect x="388" y="236" width="212" height="92" rx="18" fill="#F8FAFC" stroke="#D9E2F7"/>
    <text x="414" y="274" fill="#0F172A" font-family="Inter, Arial, sans-serif" font-size="38" font-weight="850">3</text>
    <text x="462" y="268" fill="#64748B" font-family="Inter, Arial, sans-serif" font-size="13" font-weight="800">Decisions</text>
    <text x="462" y="288" fill="#64748B" font-family="Inter, Arial, sans-serif" font-size="13" font-weight="800">cleared</text>
    <rect x="414" y="304" width="140" height="8" rx="4" fill="#DBE6FF"/>
    <rect x="414" y="304" width="104" height="8" rx="4" fill="url(#brand)"/>

    <rect x="120" y="354" width="480" height="62" rx="18" fill="#F8FAFC" stroke="#D9E2F7"/>
    <text x="148" y="380" fill="#64748B" font-family="Inter, Arial, sans-serif" font-size="12" font-weight="800">Startup fit</text>
    <rect x="148" y="394" width="168" height="9" rx="5" fill="#DBE6FF"/>
    <rect x="148" y="394" width="150" height="9" rx="5" fill="url(#brand)"/>
    <text x="366" y="380" fill="#64748B" font-family="Inter, Arial, sans-serif" font-size="12" font-weight="800">Role match</text>
    <rect x="366" y="394" width="168" height="9" rx="5" fill="#DBE6FF"/>
    <rect x="366" y="394" width="132" height="9" rx="5" fill="url(#brand)"/>
  </g>

  <g>
    <rect x="500" y="150" width="112" height="40" rx="20" fill="#111827"/>
    <circle cx="522" cy="170" r="6" fill="#60A5FA"/>
    <text x="538" y="175" fill="white" font-family="Inter, Arial, sans-serif" font-size="13" font-weight="800">Offer sent</text>
  </g>
</svg>
