<svg xmlns="http://www.w3.org/2000/svg" viewBox="0 0 720 520" fill="none">
  <defs>
    <linearGradient id="bg" x1="64" y1="24" x2="650" y2="494" gradientUnits="userSpaceOnUse">
      <stop stop-color="#F8FAFF"/>
      <stop offset="1" stop-color="#EAF0FF"/>
    </linearGradient>
    <linearGradient id="brand" x1="104" y1="104" x2="614" y2="412" gradientUnits="userSpaceOnUse">
      <stop stop-color="#1E3A8A"/>
      <stop offset=".58" stop-color="#2563EB"/>
      <stop offset="1" stop-color="#60A5FA"/>
    </linearGradient>
    <filter id="shadow" x="34" y="40" width="652" height="456" filterUnits="userSpaceOnUse" color-interpolation-filters="sRGB">
      <feDropShadow dx="0" dy="26" stdDeviation="26" flood-color="#0F172A" flood-opacity=".18"/>
    </filter>
  </defs>

  <rect width="720" height="520" rx="38" fill="url(#bg)"/>
  <path d="M92 256C196 146 292 142 386 244C478 344 548 332 628 224" stroke="#C8D5FF" stroke-width="4" stroke-linecap="round" stroke-dasharray="10 14"/>

  <g filter="url(#shadow)">
    <rect x="70" y="66" width="580" height="388" rx="22" fill="white"/>
    <rect x="70" y="66" width="580" height="58" rx="22" fill="#101B3A"/>
    <path d="M70 104H650V124H70V104Z" fill="#101B3A"/>
    <circle cx="102" cy="96" r="8" fill="#FBBF24"/>
    <circle cx="128" cy="96" r="8" fill="#FB923C"/>
    <circle cx="154" cy="96" r="8" fill="#60A5FA"/>
    <text x="184" y="102" fill="#F8FAFC" font-family="Inter, Arial, sans-serif" font-size="18" font-weight="800">Pipeline</text>

    <text x="108" y="166" fill="#64748B" font-family="Inter, Arial, sans-serif" font-size="14" font-weight="800" letter-spacing="2">HOW WORK MOVES</text>
    <text x="108" y="202" fill="#0F172A" font-family="Inter, Arial, sans-serif" font-size="31" font-weight="850">Review together</text>

    <rect x="108" y="230" width="504" height="48" rx="16" fill="#F4F7FF" stroke="#D9E2F7"/>
    <rect x="122" y="240" width="104" height="28" rx="14" fill="#DBEAFE"/>
    <rect x="240" y="240" width="104" height="28" rx="14" fill="url(#brand)"/>
    <rect x="358" y="240" width="104" height="28" rx="14" fill="white" stroke="#D9E2F7"/>
    <rect x="476" y="240" width="104" height="28" rx="14" fill="white" stroke="#D9E2F7"/>
    <text x="150" y="259" fill="#1E3A8A" font-family="Inter, Arial, sans-serif" font-size="12" font-weight="800">Applied</text>
    <text x="274" y="259" fill="white" font-family="Inter, Arial, sans-serif" font-size="12" font-weight="800">Review</text>
    <text x="384" y="259" fill="#64748B" font-family="Inter, Arial, sans-serif" font-size="12" font-weight="800">Interview</text>
    <text x="512" y="259" fill="#64748B" font-family="Inter, Arial, sans-serif" font-size="12" font-weight="800">Offer</text>

    <rect x="108" y="304" width="220" height="112" rx="16" fill="#F8FAFC" stroke="#D9E2F7"/>
    <rect x="392" y="304" width="220" height="112" rx="16" fill="#F8FAFC" stroke="#D9E2F7"/>
    <text x="130" y="334" fill="#64748B" font-family="Inter, Arial, sans-serif" font-size="14" font-weight="800">New</text>
    <text x="286" y="334" fill="#2563EB" font-family="Inter, Arial, sans-serif" font-size="14" font-weight="850">5</text>
    <text x="414" y="334" fill="#64748B" font-family="Inter, Arial, sans-serif" font-size="14" font-weight="800">Review</text>
    <text x="570" y="334" fill="#2563EB" font-family="Inter, Arial, sans-serif" font-size="14" font-weight="850">4</text>

    <rect x="130" y="354" width="154" height="44" rx="12" fill="white" stroke="#D9E2F7"/>
    <rect x="148" y="366" width="22" height="22" rx="7" fill="#FEF3C7"/>
    <text x="153" y="382" fill="#0F3D35" font-family="Inter, Arial, sans-serif" font-size="10" font-weight="850">AL</text>
    <text x="182" y="374" fill="#0F172A" font-family="Inter, Arial, sans-serif" font-size="13" font-weight="800">Amina Lewis</text>
    <text x="182" y="391" fill="#64748B" font-family="Inter, Arial, sans-serif" font-size="11">Product Engineer</text>

    <rect x="414" y="354" width="154" height="44" rx="12" fill="white" stroke="#D9E2F7"/>
    <rect x="432" y="366" width="22" height="22" rx="7" fill="#E8EEFF"/>
    <text x="436" y="382" fill="#2563EB" font-family="Inter, Arial, sans-serif" font-size="10" font-weight="850">TM</text>
    <text x="466" y="374" fill="#0F172A" font-family="Inter, Arial, sans-serif" font-size="13" font-weight="800">Taylor Moss</text>
    <text x="466" y="391" fill="#64748B" font-family="Inter, Arial, sans-serif" font-size="11">Founder notes</text>

    <path d="M296 376H386" stroke="url(#brand)" stroke-width="7" stroke-linecap="round"/>
    <path d="M374 360L392 376L374 392" stroke="#2563EB" stroke-width="7" stroke-linecap="round" stroke-linejoin="round"/>
  </g>

  <g>
    <rect x="458" y="132" width="148" height="54" rx="14" fill="white" stroke="#D9E2F7"/>
    <circle cx="482" cy="159" r="6" fill="#2563EB"/>
    <text x="498" y="156" fill="#0F172A" font-family="Inter, Arial, sans-serif" font-size="13" font-weight="800">Live activity</text>
    <text x="498" y="174" fill="#64748B" font-family="Inter, Arial, sans-serif" font-size="11">Scorecard saved</text>
  </g>
</svg>
